<mxfile host="Electron" agent="Mozilla/5.0 (Windows NT 10.0; Win64; x64) AppleWebKit/537.36 (KHTML, like Gecko) draw.io/25.0.2 Chrome/128.0.6613.186 Electron/32.2.5 Safari/537.36" version="25.0.2">
  <diagram name="Page-1" id="o5wIGqXDKvJi780g8giX">
    <mxGraphModel dx="714" dy="423" grid="1" gridSize="10" guides="1" tooltips="1" connect="1" arrows="1" fold="1" page="1" pageScale="1" pageWidth="827" pageHeight="1169" math="0" shadow="0">
      <root>
        <mxCell id="0" />
        <mxCell id="1" parent="0" />
        <mxCell id="_UufItp2rTg2V5WhQBbC-9" value="" style="ellipse;whiteSpace=wrap;html=1;align=center;aspect=fixed;fillColor=none;strokeColor=none;resizable=0;perimeter=centerPerimeter;rotatable=0;allowArrows=0;points=[];outlineConnect=1;" vertex="1" parent="1">
          <mxGeometry x="370" y="1030" width="10" height="10" as="geometry" />
        </mxCell>
        <mxCell id="_UufItp2rTg2V5WhQBbC-16" value="Simulator" style="html=1;dropTarget=0;whiteSpace=wrap;fillColor=#dae8fc;strokeColor=#6c8ebf;movable=1;resizable=1;rotatable=1;deletable=1;editable=1;locked=0;connectable=1;labelPosition=center;verticalLabelPosition=top;align=center;verticalAlign=bottom;" vertex="1" parent="1">
          <mxGeometry x="250" y="780" width="1240" height="650" as="geometry" />
        </mxCell>
        <mxCell id="_UufItp2rTg2V5WhQBbC-17" value="" style="shape=module;jettyWidth=8;jettyHeight=4;" vertex="1" parent="_UufItp2rTg2V5WhQBbC-16">
          <mxGeometry x="1" width="20" height="20" relative="1" as="geometry">
            <mxPoint x="-27" y="7" as="offset" />
          </mxGeometry>
        </mxCell>
        <mxCell id="_UufItp2rTg2V5WhQBbC-2" value="CodeEditor" style="html=1;dropTarget=0;whiteSpace=wrap;points=[[0,0.25,0,0,0],[0,0.46,0,0,0],[0,0.64,0,0,0],[0,0.83,0,0,0],[0.25,0,0,0,0],[0.25,1,0,0,0],[0.5,0,0,0,0],[0.5,1,0,0,0],[0.75,0,0,0,0],[0.75,1,0,0,0],[1,0,0,0,0],[1,0.25,0,0,0],[1,0.5,0,0,0],[1,0.75,0,0,0],[1,1,0,0,0]];movable=1;resizable=1;rotatable=1;deletable=1;editable=1;locked=0;connectable=1;" vertex="1" parent="1">
          <mxGeometry x="360" y="870" width="180" height="110" as="geometry" />
        </mxCell>
        <mxCell id="_UufItp2rTg2V5WhQBbC-3" value="" style="shape=module;jettyWidth=8;jettyHeight=4;" vertex="1" parent="_UufItp2rTg2V5WhQBbC-2">
          <mxGeometry x="1" width="20" height="20" relative="1" as="geometry">
            <mxPoint x="-27" y="7" as="offset" />
          </mxGeometry>
        </mxCell>
        <mxCell id="_UufItp2rTg2V5WhQBbC-26" value="SetProgramCode" style="edgeLabel;html=1;align=center;verticalAlign=middle;resizable=0;points=[];" vertex="1" connectable="0" parent="1">
          <mxGeometry x="190.0000000000001" y="890" as="geometry" />
        </mxCell>
        <mxCell id="_UufItp2rTg2V5WhQBbC-49" value="" style="ellipse;whiteSpace=wrap;html=1;align=center;aspect=fixed;fillColor=none;strokeColor=none;resizable=0;perimeter=centerPerimeter;rotatable=0;allowArrows=0;points=[];outlineConnect=1;" vertex="1" parent="1">
          <mxGeometry x="585" y="915" width="10" height="10" as="geometry" />
        </mxCell>
        <mxCell id="_UufItp2rTg2V5WhQBbC-50" value="" style="rounded=0;orthogonalLoop=1;jettySize=auto;html=1;endArrow=oval;endFill=0;sketch=0;sourcePerimeterSpacing=0;targetPerimeterSpacing=0;endSize=10;" edge="1" parent="1">
          <mxGeometry relative="1" as="geometry">
            <mxPoint x="360" y="900" as="sourcePoint" />
            <mxPoint x="80" y="900" as="targetPoint" />
          </mxGeometry>
        </mxCell>
        <mxCell id="_UufItp2rTg2V5WhQBbC-51" value="" style="rounded=0;orthogonalLoop=1;jettySize=auto;html=1;endArrow=oval;endFill=0;sketch=0;sourcePerimeterSpacing=0;targetPerimeterSpacing=0;endSize=10;" edge="1" parent="1">
          <mxGeometry relative="1" as="geometry">
            <mxPoint x="360" y="919.8" as="sourcePoint" />
            <mxPoint x="80" y="920" as="targetPoint" />
          </mxGeometry>
        </mxCell>
        <mxCell id="_UufItp2rTg2V5WhQBbC-52" value="" style="rounded=0;orthogonalLoop=1;jettySize=auto;html=1;endArrow=oval;endFill=0;sketch=0;sourcePerimeterSpacing=0;targetPerimeterSpacing=0;endSize=10;" edge="1" parent="1">
          <mxGeometry relative="1" as="geometry">
            <mxPoint x="360" y="960" as="sourcePoint" />
            <mxPoint x="80" y="960" as="targetPoint" />
          </mxGeometry>
        </mxCell>
        <mxCell id="_UufItp2rTg2V5WhQBbC-53" value="" style="rounded=0;orthogonalLoop=1;jettySize=auto;html=1;endArrow=oval;endFill=0;sketch=0;sourcePerimeterSpacing=0;targetPerimeterSpacing=0;endSize=10;" edge="1" parent="1">
          <mxGeometry relative="1" as="geometry">
            <mxPoint x="360" y="940" as="sourcePoint" />
            <mxPoint x="80" y="940" as="targetPoint" />
          </mxGeometry>
        </mxCell>
        <mxCell id="_UufItp2rTg2V5WhQBbC-54" value="GetProgramCode" style="edgeLabel;html=1;align=center;verticalAlign=middle;resizable=0;points=[];" vertex="1" connectable="0" parent="1">
          <mxGeometry x="190.0000000000001" y="920" as="geometry" />
        </mxCell>
        <mxCell id="_UufItp2rTg2V5WhQBbC-55" value="GetMemoryLayout" style="edgeLabel;html=1;align=center;verticalAlign=middle;resizable=0;points=[];" vertex="1" connectable="0" parent="1">
          <mxGeometry x="190.0000000000001" y="940" as="geometry" />
        </mxCell>
        <mxCell id="_UufItp2rTg2V5WhQBbC-56" value="GetMicrocodeTable" style="edgeLabel;html=1;align=center;verticalAlign=middle;resizable=0;points=[];" vertex="1" connectable="0" parent="1">
          <mxGeometry x="190.0000000000001" y="970" as="geometry" />
        </mxCell>
        <mxCell id="_UufItp2rTg2V5WhQBbC-58" value="AssemblyCodeDTO" style="edgeLabel;html=1;align=center;verticalAlign=middle;resizable=0;points=[];" vertex="1" connectable="0" parent="1">
          <mxGeometry x="595" y="915" as="geometry" />
        </mxCell>
        <mxCell id="_UufItp2rTg2V5WhQBbC-59" value="ComputerConfigurator" style="html=1;dropTarget=0;whiteSpace=wrap;" vertex="1" parent="1">
          <mxGeometry x="360" y="1030" width="180" height="90" as="geometry" />
        </mxCell>
        <mxCell id="_UufItp2rTg2V5WhQBbC-60" value="" style="shape=module;jettyWidth=8;jettyHeight=4;" vertex="1" parent="_UufItp2rTg2V5WhQBbC-59">
          <mxGeometry x="1" width="20" height="20" relative="1" as="geometry">
            <mxPoint x="-27" y="7" as="offset" />
          </mxGeometry>
        </mxCell>
        <mxCell id="_UufItp2rTg2V5WhQBbC-61" value="" style="rounded=0;orthogonalLoop=1;jettySize=auto;html=1;endArrow=oval;endFill=0;sketch=0;sourcePerimeterSpacing=0;targetPerimeterSpacing=0;endSize=10;" edge="1" parent="1">
          <mxGeometry relative="1" as="geometry">
            <mxPoint x="360" y="1050" as="sourcePoint" />
            <mxPoint x="80" y="1050" as="targetPoint" />
          </mxGeometry>
        </mxCell>
        <mxCell id="_UufItp2rTg2V5WhQBbC-62" value="ISRDTO" style="edgeLabel;html=1;align=center;verticalAlign=middle;resizable=0;points=[];" vertex="1" connectable="0" parent="1">
          <mxGeometry x="585" y="1040" as="geometry" />
        </mxCell>
        <mxCell id="_UufItp2rTg2V5WhQBbC-63" value="ConfigureMemoryLayout" style="edgeLabel;html=1;align=center;verticalAlign=middle;resizable=0;points=[];" vertex="1" connectable="0" parent="1">
          <mxGeometry x="200.0000000000001" y="1060" as="geometry">
            <mxPoint x="-4" y="2" as="offset" />
          </mxGeometry>
        </mxCell>
        <mxCell id="_UufItp2rTg2V5WhQBbC-64" value="ConfigureMicrocodeTable" style="edgeLabel;html=1;align=center;verticalAlign=middle;resizable=0;points=[];" vertex="1" connectable="0" parent="1">
          <mxGeometry x="200.0000000000001" y="1090" as="geometry" />
        </mxCell>
        <mxCell id="_UufItp2rTg2V5WhQBbC-65" value="" style="rounded=0;orthogonalLoop=1;jettySize=auto;html=1;endArrow=oval;endFill=0;sketch=0;sourcePerimeterSpacing=0;targetPerimeterSpacing=0;endSize=10;" edge="1" parent="1">
          <mxGeometry relative="1" as="geometry">
            <mxPoint x="360" y="1074.81" as="sourcePoint" />
            <mxPoint x="80" y="1075" as="targetPoint" />
          </mxGeometry>
        </mxCell>
        <mxCell id="_UufItp2rTg2V5WhQBbC-66" value="" style="rounded=0;orthogonalLoop=1;jettySize=auto;html=1;endArrow=oval;endFill=0;sketch=0;sourcePerimeterSpacing=0;targetPerimeterSpacing=0;endSize=10;" edge="1" parent="1">
          <mxGeometry relative="1" as="geometry">
            <mxPoint x="360" y="1100" as="sourcePoint" />
            <mxPoint x="80" y="1100" as="targetPoint" />
          </mxGeometry>
        </mxCell>
        <mxCell id="_UufItp2rTg2V5WhQBbC-68" value="ConfigureISRs" style="edgeLabel;html=1;align=center;verticalAlign=middle;resizable=0;points=[];" vertex="1" connectable="0" parent="1">
          <mxGeometry x="190.0000000000001" y="1040" as="geometry" />
        </mxCell>
        <mxCell id="_UufItp2rTg2V5WhQBbC-70" value="MemoryLayoutDTO" style="edgeLabel;html=1;align=center;verticalAlign=middle;resizable=0;points=[];" vertex="1" connectable="0" parent="1">
          <mxGeometry x="595" y="1070" as="geometry" />
        </mxCell>
        <mxCell id="_UufItp2rTg2V5WhQBbC-71" value="MicrocodeTableDTO" style="edgeLabel;html=1;align=center;verticalAlign=middle;resizable=0;points=[];" vertex="1" connectable="0" parent="1">
          <mxGeometry x="600" y="1090" as="geometry" />
        </mxCell>
        <mxCell id="_UufItp2rTg2V5WhQBbC-72" value="HelpWizard" style="html=1;dropTarget=0;whiteSpace=wrap;" vertex="1" parent="1">
          <mxGeometry x="360" y="1160" width="180" height="90" as="geometry" />
        </mxCell>
        <mxCell id="_UufItp2rTg2V5WhQBbC-73" value="" style="shape=module;jettyWidth=8;jettyHeight=4;" vertex="1" parent="_UufItp2rTg2V5WhQBbC-72">
          <mxGeometry x="1" width="20" height="20" relative="1" as="geometry">
            <mxPoint x="-27" y="7" as="offset" />
          </mxGeometry>
        </mxCell>
        <mxCell id="_UufItp2rTg2V5WhQBbC-74" value="" style="rounded=0;orthogonalLoop=1;jettySize=auto;html=1;endArrow=oval;endFill=0;sketch=0;sourcePerimeterSpacing=0;targetPerimeterSpacing=0;endSize=10;" edge="1" parent="1">
          <mxGeometry relative="1" as="geometry">
            <mxPoint x="360" y="1190" as="sourcePoint" />
            <mxPoint x="80" y="1190" as="targetPoint" />
          </mxGeometry>
        </mxCell>
        <mxCell id="_UufItp2rTg2V5WhQBbC-75" value="GetISA" style="edgeLabel;html=1;align=center;verticalAlign=middle;resizable=0;points=[];" vertex="1" connectable="0" parent="1">
          <mxGeometry x="190.0000000000001" y="1180" as="geometry" />
        </mxCell>
        <mxCell id="_UufItp2rTg2V5WhQBbC-76" value="GetApplicationInfo" style="edgeLabel;html=1;align=center;verticalAlign=middle;resizable=0;points=[];" vertex="1" connectable="0" parent="1">
          <mxGeometry x="200.0000000000001" y="1210" as="geometry">
            <mxPoint x="-12" y="-2" as="offset" />
          </mxGeometry>
        </mxCell>
        <mxCell id="_UufItp2rTg2V5WhQBbC-77" value="" style="rounded=0;orthogonalLoop=1;jettySize=auto;html=1;endArrow=oval;endFill=0;sketch=0;sourcePerimeterSpacing=0;targetPerimeterSpacing=0;endSize=10;" edge="1" parent="1">
          <mxGeometry relative="1" as="geometry">
            <mxPoint x="360" y="1220" as="sourcePoint" />
            <mxPoint x="80" y="1220" as="targetPoint" />
          </mxGeometry>
        </mxCell>
        <mxCell id="_UufItp2rTg2V5WhQBbC-78" value="Assembler" style="html=1;dropTarget=0;whiteSpace=wrap;" vertex="1" parent="1">
          <mxGeometry x="820" y="960" width="180" height="160" as="geometry" />
        </mxCell>
        <mxCell id="_UufItp2rTg2V5WhQBbC-79" value="" style="shape=module;jettyWidth=8;jettyHeight=4;" vertex="1" parent="_UufItp2rTg2V5WhQBbC-78">
          <mxGeometry x="1" width="20" height="20" relative="1" as="geometry">
            <mxPoint x="-27" y="7" as="offset" />
          </mxGeometry>
        </mxCell>
        <mxCell id="_UufItp2rTg2V5WhQBbC-80" value="" style="rounded=0;orthogonalLoop=1;jettySize=auto;html=1;endArrow=halfCircle;endFill=0;endSize=6;strokeWidth=1;sketch=0;exitX=0.002;exitY=0.429;exitDx=0;exitDy=0;exitPerimeter=0;" edge="1" parent="1">
          <mxGeometry relative="1" as="geometry">
            <mxPoint x="820.3599999999999" y="1000.0000000000001" as="sourcePoint" />
            <mxPoint x="670" y="1000.85" as="targetPoint" />
          </mxGeometry>
        </mxCell>
        <mxCell id="_UufItp2rTg2V5WhQBbC-81" value="" style="rounded=0;orthogonalLoop=1;jettySize=auto;html=1;endArrow=oval;endFill=0;sketch=0;sourcePerimeterSpacing=0;targetPerimeterSpacing=0;endSize=10;exitX=1;exitY=0.5;exitDx=0;exitDy=0;exitPerimeter=0;" edge="1" parent="1" source="_UufItp2rTg2V5WhQBbC-2">
          <mxGeometry relative="1" as="geometry">
            <mxPoint x="545" y="925" as="sourcePoint" />
            <mxPoint x="670" y="1000" as="targetPoint" />
            <Array as="points">
              <mxPoint x="640" y="925" />
              <mxPoint x="640" y="960" />
              <mxPoint x="640" y="1000" />
            </Array>
          </mxGeometry>
        </mxCell>
        <mxCell id="_UufItp2rTg2V5WhQBbC-82" value="" style="ellipse;whiteSpace=wrap;html=1;align=center;aspect=fixed;fillColor=none;strokeColor=none;resizable=0;perimeter=centerPerimeter;rotatable=0;allowArrows=0;points=[];outlineConnect=1;" vertex="1" parent="1">
          <mxGeometry x="660" y="920" width="10" height="10" as="geometry" />
        </mxCell>
        <mxCell id="_UufItp2rTg2V5WhQBbC-84" value="SetAssemblyCode" style="text;html=1;align=center;verticalAlign=middle;whiteSpace=wrap;rounded=0;" vertex="1" parent="1">
          <mxGeometry x="700" y="970" width="120" height="30" as="geometry" />
        </mxCell>
        <mxCell id="_UufItp2rTg2V5WhQBbC-85" value="SetISRs" style="text;html=1;align=center;verticalAlign=middle;whiteSpace=wrap;rounded=0;" vertex="1" parent="1">
          <mxGeometry x="690" y="1000" width="120" height="30" as="geometry" />
        </mxCell>
        <mxCell id="_UufItp2rTg2V5WhQBbC-86" value="SetMicrocodeTable" style="text;html=1;align=center;verticalAlign=middle;whiteSpace=wrap;rounded=0;" vertex="1" parent="1">
          <mxGeometry x="690" y="1070" width="120" height="30" as="geometry" />
        </mxCell>
        <mxCell id="_UufItp2rTg2V5WhQBbC-95" value="" style="rounded=0;orthogonalLoop=1;jettySize=auto;html=1;endArrow=halfCircle;endFill=0;endSize=6;strokeWidth=1;sketch=0;exitX=0.007;exitY=0.872;exitDx=0;exitDy=0;exitPerimeter=0;" edge="1" parent="1" source="_UufItp2rTg2V5WhQBbC-78">
          <mxGeometry relative="1" as="geometry">
            <mxPoint x="775" y="1100" as="sourcePoint" />
            <mxPoint x="670" y="1100" as="targetPoint" />
          </mxGeometry>
        </mxCell>
        <mxCell id="_UufItp2rTg2V5WhQBbC-96" value="" style="ellipse;whiteSpace=wrap;html=1;align=center;aspect=fixed;fillColor=none;strokeColor=none;resizable=0;perimeter=centerPerimeter;rotatable=0;allowArrows=0;points=[];outlineConnect=1;" vertex="1" parent="1">
          <mxGeometry x="630" y="990" width="10" height="10" as="geometry" />
        </mxCell>
        <mxCell id="_UufItp2rTg2V5WhQBbC-97" value="" style="rounded=0;orthogonalLoop=1;jettySize=auto;html=1;endArrow=oval;endFill=0;sketch=0;sourcePerimeterSpacing=0;targetPerimeterSpacing=0;endSize=10;exitX=1;exitY=0.5;exitDx=0;exitDy=0;exitPerimeter=0;" edge="1" parent="1">
          <mxGeometry relative="1" as="geometry">
            <mxPoint x="540" y="1050" as="sourcePoint" />
            <mxPoint x="670" y="1030" as="targetPoint" />
            <Array as="points">
              <mxPoint x="610" y="1050" />
              <mxPoint x="640" y="1050" />
              <mxPoint x="660" y="1050" />
            </Array>
          </mxGeometry>
        </mxCell>
        <mxCell id="_UufItp2rTg2V5WhQBbC-98" value="" style="rounded=0;orthogonalLoop=1;jettySize=auto;html=1;endArrow=oval;endFill=0;sketch=0;sourcePerimeterSpacing=0;targetPerimeterSpacing=0;endSize=10;exitX=1;exitY=0.5;exitDx=0;exitDy=0;exitPerimeter=0;" edge="1" parent="1">
          <mxGeometry relative="1" as="geometry">
            <mxPoint x="540" y="1074.75" as="sourcePoint" />
            <mxPoint x="670" y="1060" as="targetPoint" />
            <Array as="points">
              <mxPoint x="610" y="1075" />
              <mxPoint x="650" y="1075" />
            </Array>
          </mxGeometry>
        </mxCell>
        <mxCell id="_UufItp2rTg2V5WhQBbC-99" value="" style="rounded=0;orthogonalLoop=1;jettySize=auto;html=1;endArrow=oval;endFill=0;sketch=0;sourcePerimeterSpacing=0;targetPerimeterSpacing=0;endSize=10;exitX=1;exitY=0.5;exitDx=0;exitDy=0;exitPerimeter=0;" edge="1" parent="1">
          <mxGeometry relative="1" as="geometry">
            <mxPoint x="540" y="1100" as="sourcePoint" />
            <mxPoint x="665" y="1100" as="targetPoint" />
          </mxGeometry>
        </mxCell>
        <mxCell id="_UufItp2rTg2V5WhQBbC-100" value="" style="rounded=0;orthogonalLoop=1;jettySize=auto;html=1;endArrow=halfCircle;endFill=0;endSize=6;strokeWidth=1;sketch=0;exitX=-0.002;exitY=0.719;exitDx=0;exitDy=0;exitPerimeter=0;" edge="1" parent="1">
          <mxGeometry relative="1" as="geometry">
            <mxPoint x="820.0000000000001" y="1060.3999999999999" as="sourcePoint" />
            <mxPoint x="670.36" y="1060" as="targetPoint" />
          </mxGeometry>
        </mxCell>
        <mxCell id="_UufItp2rTg2V5WhQBbC-101" value="" style="rounded=0;orthogonalLoop=1;jettySize=auto;html=1;endArrow=halfCircle;endFill=0;endSize=6;strokeWidth=1;sketch=0;exitX=-0.007;exitY=0.559;exitDx=0;exitDy=0;exitPerimeter=0;" edge="1" parent="1">
          <mxGeometry relative="1" as="geometry">
            <mxPoint x="820" y="1029.44" as="sourcePoint" />
            <mxPoint x="671.26" y="1030" as="targetPoint" />
            <Array as="points">
              <mxPoint x="781.26" y="1030" />
            </Array>
          </mxGeometry>
        </mxCell>
        <mxCell id="_UufItp2rTg2V5WhQBbC-106" value="SetMemoryLayout" style="text;html=1;align=center;verticalAlign=middle;whiteSpace=wrap;rounded=0;" vertex="1" parent="1">
          <mxGeometry x="690" y="1030" width="120" height="30" as="geometry" />
        </mxCell>
        <mxCell id="_UufItp2rTg2V5WhQBbC-108" value="CodeStateMachine" style="html=1;dropTarget=0;whiteSpace=wrap;" vertex="1" parent="1">
          <mxGeometry x="1190" y="965" width="180" height="160" as="geometry" />
        </mxCell>
        <mxCell id="_UufItp2rTg2V5WhQBbC-109" value="" style="shape=module;jettyWidth=8;jettyHeight=4;" vertex="1" parent="_UufItp2rTg2V5WhQBbC-108">
          <mxGeometry x="1" width="20" height="20" relative="1" as="geometry">
            <mxPoint x="-27" y="7" as="offset" />
          </mxGeometry>
        </mxCell>
        <mxCell id="_UufItp2rTg2V5WhQBbC-110" value="ComputerDiagram&lt;div&gt;&lt;br&gt;&lt;/div&gt;" style="html=1;dropTarget=0;whiteSpace=wrap;" vertex="1" parent="1">
          <mxGeometry x="360" y="1280" width="180" height="80" as="geometry" />
        </mxCell>
        <mxCell id="_UufItp2rTg2V5WhQBbC-111" value="" style="shape=module;jettyWidth=8;jettyHeight=4;" vertex="1" parent="_UufItp2rTg2V5WhQBbC-110">
          <mxGeometry x="1" width="20" height="20" relative="1" as="geometry">
            <mxPoint x="-27" y="7" as="offset" />
          </mxGeometry>
        </mxCell>
        <mxCell id="_UufItp2rTg2V5WhQBbC-113" value="" style="rounded=0;orthogonalLoop=1;jettySize=auto;html=1;endArrow=oval;endFill=0;sketch=0;sourcePerimeterSpacing=0;targetPerimeterSpacing=0;endSize=10;" edge="1" parent="1">
          <mxGeometry relative="1" as="geometry">
            <mxPoint x="360" y="1319.57" as="sourcePoint" />
            <mxPoint x="80" y="1319.57" as="targetPoint" />
          </mxGeometry>
        </mxCell>
        <mxCell id="_UufItp2rTg2V5WhQBbC-114" value="GetComputerDiagram" style="edgeLabel;html=1;align=center;verticalAlign=middle;resizable=0;points=[];" vertex="1" connectable="0" parent="1">
          <mxGeometry x="190.0000000000001" y="1320" as="geometry">
            <mxPoint x="8" y="-22" as="offset" />
          </mxGeometry>
        </mxCell>
        <mxCell id="_UufItp2rTg2V5WhQBbC-115" value="" style="rounded=0;orthogonalLoop=1;jettySize=auto;html=1;endArrow=halfCircle;endFill=0;endSize=6;strokeWidth=1;sketch=0;exitX=0;exitY=0.5;exitDx=0;exitDy=0;" edge="1" parent="1" source="_UufItp2rTg2V5WhQBbC-108">
          <mxGeometry relative="1" as="geometry">
            <mxPoint x="1210" y="1045" as="sourcePoint" />
            <mxPoint x="1130" y="1045.01" as="targetPoint" />
            <Array as="points">
              <mxPoint x="1190" y="1045" />
              <mxPoint x="1160" y="1045" />
            </Array>
          </mxGeometry>
        </mxCell>
        <mxCell id="_UufItp2rTg2V5WhQBbC-116" value="" style="rounded=0;orthogonalLoop=1;jettySize=auto;html=1;endArrow=oval;endFill=0;sketch=0;sourcePerimeterSpacing=0;targetPerimeterSpacing=0;endSize=10;exitX=1;exitY=0.5;exitDx=0;exitDy=0;exitPerimeter=0;" edge="1" parent="1">
          <mxGeometry relative="1" as="geometry">
            <mxPoint x="1000" y="1044.8" as="sourcePoint" />
            <mxPoint x="1130" y="1045" as="targetPoint" />
          </mxGeometry>
        </mxCell>
        <mxCell id="_UufItp2rTg2V5WhQBbC-117" value="ObjectCodeDTO" style="text;html=1;align=center;verticalAlign=middle;whiteSpace=wrap;rounded=0;" vertex="1" parent="1">
          <mxGeometry x="1000" y="1020" width="120" height="30" as="geometry" />
        </mxCell>
        <mxCell id="_UufItp2rTg2V5WhQBbC-118" value="" style="rounded=0;orthogonalLoop=1;jettySize=auto;html=1;endArrow=halfCircle;endFill=0;endSize=6;strokeWidth=1;sketch=0;exitX=1.002;exitY=0.628;exitDx=0;exitDy=0;exitPerimeter=0;" edge="1" parent="1" source="_UufItp2rTg2V5WhQBbC-110">
          <mxGeometry relative="1" as="geometry">
            <mxPoint x="600" y="1330.56" as="sourcePoint" />
            <mxPoint x="700" y="1330" as="targetPoint" />
            <Array as="points">
              <mxPoint x="670" y="1330" />
              <mxPoint x="700" y="1330" />
            </Array>
          </mxGeometry>
        </mxCell>
        <mxCell id="_UufItp2rTg2V5WhQBbC-119" value="UpdateComputerDiagram" style="text;html=1;align=center;verticalAlign=middle;whiteSpace=wrap;rounded=0;" vertex="1" parent="1">
          <mxGeometry x="530" y="1300" width="160" height="30" as="geometry" />
        </mxCell>
        <mxCell id="_UufItp2rTg2V5WhQBbC-121" value="" style="rounded=0;orthogonalLoop=1;jettySize=auto;html=1;endArrow=oval;endFill=0;sketch=0;sourcePerimeterSpacing=0;targetPerimeterSpacing=0;endSize=10;exitX=0.5;exitY=1;exitDx=0;exitDy=0;" edge="1" parent="1" source="_UufItp2rTg2V5WhQBbC-108">
          <mxGeometry relative="1" as="geometry">
            <mxPoint x="1280" y="1240" as="sourcePoint" />
            <mxPoint x="700" y="1330" as="targetPoint" />
            <Array as="points">
              <mxPoint x="1280" y="1330" />
              <mxPoint x="990" y="1330" />
            </Array>
          </mxGeometry>
        </mxCell>
        <mxCell id="_UufItp2rTg2V5WhQBbC-129" value="ExecuteOMachineCode" style="text;html=1;align=center;verticalAlign=middle;whiteSpace=wrap;rounded=0;" vertex="1" parent="1">
          <mxGeometry x="840" y="1305" width="120" height="30" as="geometry" />
        </mxCell>
      </root>
    </mxGraphModel>
  </diagram>
</mxfile>
